<?plantuml 1.2026.2beta3?><svg xmlns="http://www.w3.org/2000/svg" xmlns:xlink="http://www.w3.org/1999/xlink" contentStyleType="text/css" data-diagram-type="STATE" height="878px" preserveAspectRatio="none" style="width:562px;height:878px;background:#FFFFFF;" version="1.1" viewBox="0 0 562 878" width="562px" zoomAndPan="magnify"><title>Requirement Lifecycle State Diagram</title><defs/><g><g class="title" data-source-line="1"><text fill="#000000" font-family="sans-serif" font-size="14" font-weight="bold" lengthAdjust="spacing" textLength="295.3877" x="126.6308" y="22.9951">Requirement Lifecycle State Diagram</text></g><g class="start_entity" data-qualified-name=".start." data-source-line="3" id="ent0002"><ellipse cx="336.73" cy="53.2969" fill="#222222" rx="10" ry="10" style="stroke:#222222;stroke-width:1;"/></g><g class="entity" data-qualified-name="Created" id="ent0003"><rect fill="#F1F1F1" height="50" rx="12.5" ry="12.5" style="stroke:#181818;stroke-width:0.5;" width="75.7129" x="298.87" y="142.9969"/><line style="stroke:#181818;stroke-width:0.5;" x1="298.87" x2="374.5829" y1="169.2938" y2="169.2938"/><text fill="#000000" font-family="sans-serif" font-size="14" lengthAdjust="spacing" textLength="55.7129" x="308.87" y="160.992">Created</text></g><g class="entity" data-qualified-name="Ready" id="ent0005"><rect fill="#F1F1F1" height="50" rx="12.5" ry="12.5" style="stroke:#181818;stroke-width:0.5;" width="64.0918" x="218.68" y="287.6969"/><line style="stroke:#181818;stroke-width:0.5;" x1="218.68" x2="282.7718" y1="313.9938" y2="313.9938"/><text fill="#000000" font-family="sans-serif" font-size="14" lengthAdjust="spacing" textLength="44.0918" x="228.68" y="305.692">Ready</text></g><g class="entity" data-qualified-name="InReview" id="ent0007"><rect fill="#F1F1F1" height="50" rx="12.5" ry="12.5" style="stroke:#181818;stroke-width:0.5;" width="83.5811" x="150.94" y="429.6969"/><line style="stroke:#181818;stroke-width:0.5;" x1="150.94" x2="234.5211" y1="455.9938" y2="455.9938"/><text fill="#000000" font-family="sans-serif" font-size="14" lengthAdjust="spacing" textLength="63.5811" x="160.94" y="447.692">InReview</text></g><g class="entity" data-qualified-name="Accepted" id="ent0009"><rect fill="#F1F1F1" height="50" rx="12.5" ry="12.5" style="stroke:#181818;stroke-width:0.5;" width="85.4609" x="7" y="581.9669"/><line style="stroke:#181818;stroke-width:0.5;" x1="7" x2="92.4609" y1="608.2638" y2="608.2638"/><text fill="#000000" font-family="sans-serif" font-size="14" lengthAdjust="spacing" textLength="65.4609" x="17" y="599.962">Accepted</text></g><g class="entity" data-qualified-name="Rejected" id="ent0012"><rect fill="#F1F1F1" height="50" rx="12.5" ry="12.5" style="stroke:#181818;stroke-width:0.5;" width="81.5303" x="382.97" y="581.9669"/><line style="stroke:#181818;stroke-width:0.5;" x1="382.97" x2="464.5003" y1="608.2638" y2="608.2638"/><text fill="#000000" font-family="sans-serif" font-size="14" lengthAdjust="spacing" textLength="61.5303" x="392.97" y="599.962">Rejected</text></g><g class="entity" data-qualified-name="Obsolete" id="ent0014"><rect fill="#F1F1F1" height="50" rx="12.5" ry="12.5" style="stroke:#181818;stroke-width:0.5;" width="82.3711" x="195.54" y="736.9269"/><line style="stroke:#181818;stroke-width:0.5;" x1="195.54" x2="277.9111" y1="763.2238" y2="763.2238"/><text fill="#000000" font-family="sans-serif" font-size="14" lengthAdjust="spacing" textLength="62.3711" x="205.54" y="754.922">Obsolete</text></g><g class="end_entity" data-qualified-name=".end." data-source-line="18" id="ent0018"><ellipse cx="236.73" cy="861.6269" fill="none" rx="11" ry="11" style="stroke:#222222;stroke-width:1;"/><ellipse cx="236.73" cy="861.6269" fill="#222222" rx="6" ry="6" style="stroke:#222222;stroke-width:1;"/></g><g class="entity" data-qualified-name="GMN2" data-source-line="21" id="ent0003"><path d="M409.81,140.2969 L409.81,163.9969 L374.94,167.9969 L409.81,171.9969 L409.81,195.6953 A0,0 0 0 0 409.81,195.6953 L555.6494,195.6953 A0,0 0 0 0 555.6494,195.6953 L555.6494,150.2969 L545.6494,140.2969 L409.81,140.2969 A0,0 0 0 0 409.81,140.2969" fill="#FEFFDD" style="stroke:#181818;stroke-width:0.5;"/><path d="M545.6494,140.2969 L545.6494,150.2969 L555.6494,150.2969 L545.6494,140.2969" fill="#FEFFDD" style="stroke:#181818;stroke-width:0.5;"/><text fill="#000000" font-family="sans-serif" font-size="13" lengthAdjust="spacing" textLength="112.2773" x="415.81" y="157.3638">Initial state when</text><text fill="#000000" font-family="sans-serif" font-size="13" lengthAdjust="spacing" textLength="124.8394" x="415.81" y="172.4966">requirement is first</text><text fill="#000000" font-family="sans-serif" font-size="13" lengthAdjust="spacing" textLength="81.8403" x="415.81" y="187.6294">documented</text></g><g class="entity" data-qualified-name="GMN5" data-source-line="27" id="ent0006"><path d="M127.67,571.6969 L127.67,602.9669 L92.69,606.9669 L127.67,610.9669 L127.67,642.2281 A0,0 0 0 0 127.67,642.2281 L347.7896,642.2281 A0,0 0 0 0 347.7896,642.2281 L347.7896,581.6969 L337.7896,571.6969 L127.67,571.6969 A0,0 0 0 0 127.67,571.6969" fill="#FEFFDD" style="stroke:#181818;stroke-width:0.5;"/><path d="M337.7896,571.6969 L337.7896,581.6969 L347.7896,581.6969 L337.7896,571.6969" fill="#FEFFDD" style="stroke:#181818;stroke-width:0.5;"/><text fill="#000000" font-family="sans-serif" font-size="13" lengthAdjust="spacing" textLength="164.8359" x="133.67" y="588.7638">Requirement is approved</text><text fill="#000000" font-family="sans-serif" font-size="13" lengthAdjust="spacing" textLength="199.1196" x="133.67" y="603.8966">and ready for implementation.</text><text fill="#000000" font-family="sans-serif" font-size="13" lengthAdjust="spacing" textLength="180.1846" x="133.67" y="619.0294">Cannot be changed without</text><text fill="#000000" font-family="sans-serif" font-size="13" lengthAdjust="spacing" textLength="155.8286" x="133.67" y="634.1622">change control process.</text></g><g class="entity" data-qualified-name="GMN8" data-source-line="34" id="ent0009"><path d="M313.08,734.2269 L313.08,757.9269 L278.19,761.9269 L313.08,765.9269 L313.08,789.6253 A0,0 0 0 0 313.08,789.6253 L526.3886,789.6253 A0,0 0 0 0 526.3886,789.6253 L526.3886,744.2269 L516.3886,734.2269 L313.08,734.2269 A0,0 0 0 0 313.08,734.2269" fill="#FEFFDD" style="stroke:#181818;stroke-width:0.5;"/><path d="M516.3886,734.2269 L516.3886,744.2269 L526.3886,744.2269 L516.3886,734.2269" fill="#FEFFDD" style="stroke:#181818;stroke-width:0.5;"/><text fill="#000000" font-family="sans-serif" font-size="13" lengthAdjust="spacing" textLength="164.8486" x="319.08" y="751.2938">Requirement is no longer</text><text fill="#000000" font-family="sans-serif" font-size="13" lengthAdjust="spacing" textLength="192.3086" x="319.08" y="766.4266">valid or has been superseded</text><text fill="#000000" font-family="sans-serif" font-size="13" lengthAdjust="spacing" textLength="159.9673" x="319.08" y="781.5594">by another requirement.</text></g><!--link *start* to Created--><g class="link" data-entity-1="ent0002" data-entity-2="ent0003" data-link-type="dependency" data-source-line="3" id="lnk4"><path d="M336.73,63.5169 C336.73,80.6569 336.73,111.9269 336.73,136.7369" fill="none" id="*start*-to-Created" style="stroke:#181818;stroke-width:1;"/><polygon fill="#181818" points="336.73,142.7369,340.73,133.7369,336.73,137.7369,332.73,133.7369,336.73,142.7369" style="stroke:#181818;stroke-width:1;"/><text fill="#000000" font-family="sans-serif" font-size="13" lengthAdjust="spacing" textLength="166.334" x="337.73" y="106.3638">New requirement defined</text></g><!--link Created to Ready--><g class="link" data-entity-1="ent0003" data-entity-2="ent0005" data-link-type="dependency" data-source-line="5" id="lnk6"><path d="M298.4,183.0069 C279.54,192.0769 258.57,205.9369 247.73,225.6969 C237.38,244.5569 238.3565,263.5436 242.2965,281.6836" fill="none" id="Created-to-Ready" style="stroke:#181818;stroke-width:1;"/><polygon fill="#181818" points="243.57,287.5469,245.5686,277.9029,242.5087,282.6608,237.7509,279.6009,243.57,287.5469" style="stroke:#181818;stroke-width:1;"/><text fill="#000000" font-family="sans-serif" font-size="13" lengthAdjust="spacing" textLength="148.1353" x="248.73" y="238.7638">Requirement reviewed</text><text fill="#000000" font-family="sans-serif" font-size="13" lengthAdjust="spacing" textLength="91.292" x="277.1516" y="253.8966">and baselined</text></g><!--link Ready to InReview--><g class="link" data-entity-1="ent0005" data-entity-2="ent0007" data-link-type="dependency" data-source-line="7" id="lnk8"><path d="M218.24,316.4669 C185.87,321.1469 137.77,333.7569 114.73,367.6969 C106.74,379.4669 108.13,387.0969 114.73,399.6969 C122.53,414.5769 131.372,423.0454 145.362,431.6054" fill="none" id="Ready-to-InReview" style="stroke:#181818;stroke-width:1;"/><polygon fill="#181818" points="150.48,434.7369,144.8907,426.6276,146.215,432.1273,140.7154,433.4516,150.48,434.7369" style="stroke:#181818;stroke-width:1;"/><text fill="#000000" font-family="sans-serif" font-size="13" lengthAdjust="spacing" textLength="109.313" x="115.73" y="380.7638">Technical review</text><text fill="#000000" font-family="sans-serif" font-size="13" lengthAdjust="spacing" textLength="53.4854" x="143.6438" y="395.8966">initiated</text></g><!--link InReview to Ready--><g class="link" data-entity-1="ent0007" data-entity-2="ent0005" data-link-type="dependency" data-source-line="10" id="lnk11"><path d="M212.23,429.2669 C218.57,420.3769 225.14,409.9669 229.73,399.6969 C238.57,379.9069 242.9885,361.734 246.1285,344.094" fill="none" id="InReview-to-Ready" style="stroke:#181818;stroke-width:1;"/><polygon fill="#181818" points="247.18,338.1869,241.6647,346.3466,246.3038,343.1095,249.5408,347.7486,247.18,338.1869" style="stroke:#181818;stroke-width:1;"/><text fill="#000000" font-family="sans-serif" font-size="13" lengthAdjust="spacing" textLength="95.1133" x="241.73" y="380.7638">Minor changes</text><text fill="#000000" font-family="sans-serif" font-size="13" lengthAdjust="spacing" textLength="55.0405" x="261.7664" y="395.8966">required</text></g><!--link InReview to Accepted--><g class="link" data-entity-1="ent0007" data-entity-2="ent0009" data-link-type="dependency" data-source-line="9" id="lnk10"><path d="M164.27,479.9869 C154.06,489.0469 142.63,499.5869 132.73,509.6969 C109.88,533.0369 89.515,556.9277 73.185,576.8377" fill="none" id="InReview-to-Accepted" style="stroke:#181818;stroke-width:1;"/><polygon fill="#181818" points="69.38,581.4769,78.1803,577.0548,72.5508,577.6109,71.9947,571.9814,69.38,581.4769" style="stroke:#181818;stroke-width:1;"/><text fill="#000000" font-family="sans-serif" font-size="13" lengthAdjust="spacing" textLength="112.8105" x="133.73" y="530.2638">Review approved</text></g><!--link InReview to Rejected--><g class="link" data-entity-1="ent0007" data-entity-2="ent0012" data-link-type="dependency" data-source-line="11" id="lnk13"><path d="M226.21,480.0969 C250.69,497.6969 284.87,521.7669 315.73,541.6969 C322.26,545.9169 349.8159,562.292 377.5559,578.702" fill="none" id="InReview-to-Rejected" style="stroke:#181818;stroke-width:1;"/><polygon fill="#181818" points="382.72,581.7569,377.0105,573.7318,378.4166,579.2111,372.9373,580.6173,382.72,581.7569" style="stroke:#181818;stroke-width:1;"/><text fill="#000000" font-family="sans-serif" font-size="13" lengthAdjust="spacing" textLength="80.3931" x="316.73" y="522.7638">Major issues</text><text fill="#000000" font-family="sans-serif" font-size="13" lengthAdjust="spacing" textLength="61.2485" x="326.3023" y="537.8966">identified</text></g><!--link Accepted to Obsolete--><g class="link" data-entity-1="ent0009" data-entity-2="ent0014" data-link-type="dependency" data-source-line="13" id="lnk15"><path d="M79.36,632.1969 C114.27,660.7569 167.2951,704.1389 202.2851,732.7489" fill="none" id="Accepted-to-Obsolete" style="stroke:#181818;stroke-width:1;"/><polygon fill="#181818" points="206.93,736.5469,202.4946,727.7533,203.0592,733.3819,197.4306,733.9465,206.93,736.5469" style="stroke:#181818;stroke-width:1;"/><text fill="#000000" font-family="sans-serif" font-size="13" lengthAdjust="spacing" textLength="104.7998" x="166.73" y="685.2938">Requirement no</text><text fill="#000000" font-family="sans-serif" font-size="13" lengthAdjust="spacing" textLength="94.269" x="171.9954" y="700.4266">longer needed</text></g><!--link Rejected to Created--><g class="link" data-entity-1="ent0012" data-entity-2="ent0003" data-link-type="dependency" data-source-line="15" id="lnk16"><path d="M428.48,581.6569 C439.5,518.8769 461.53,347.7269 401.73,225.6969 C395.6,213.1869 389.9608,206.1263 379.3808,197.3163" fill="none" id="Rejected-to-Created" style="stroke:#181818;stroke-width:1;"/><polygon fill="#181818" points="374.77,193.4769,379.1265,202.3098,378.6123,196.6764,384.2457,196.1621,374.77,193.4769" style="stroke:#181818;stroke-width:1;"/><text fill="#000000" font-family="sans-serif" font-size="13" lengthAdjust="spacing" textLength="77.0796" x="441.73" y="380.7638">Rework and</text><text fill="#000000" font-family="sans-serif" font-size="13" lengthAdjust="spacing" textLength="57.9795" x="451.28" y="395.8966">resubmit</text></g><!--link Rejected to Obsolete--><g class="link" data-entity-1="ent0012" data-entity-2="ent0014" data-link-type="dependency" data-source-line="16" id="lnk17"><path d="M394.1,632.1969 C359.19,660.7569 306.1649,704.1389 271.1749,732.7489" fill="none" id="Rejected-to-Obsolete" style="stroke:#181818;stroke-width:1;"/><polygon fill="#181818" points="266.53,736.5469,276.0294,733.9465,270.4008,733.3819,270.9654,727.7533,266.53,736.5469" style="stroke:#181818;stroke-width:1;"/><text fill="#000000" font-family="sans-serif" font-size="13" lengthAdjust="spacing" textLength="82.6909" x="342.73" y="685.2938">Permanently</text><text fill="#000000" font-family="sans-serif" font-size="13" lengthAdjust="spacing" textLength="53.4473" x="357.3518" y="700.4266">rejected</text></g><!--link Obsolete to *end*--><g class="link" data-entity-1="ent0014" data-entity-2="ent0018" data-link-type="dependency" data-source-line="18" id="lnk19"><path d="M236.73,787.3269 C236.73,807.6769 236.73,829.6469 236.73,844.4669" fill="none" id="Obsolete-to-*end*" style="stroke:#181818;stroke-width:1;"/><polygon fill="#181818" points="236.73,850.4669,240.73,841.4669,236.73,845.4669,232.73,841.4669,236.73,850.4669" style="stroke:#181818;stroke-width:1;"/></g><?plantuml-src TP7DJiCm48JlVeez8xKFm049mGM90WhSA0V7tZGBpZhOJgE-FUlybAI8ewrlTdPd4YM7KE1tHm4Rv0IFLA4v6VbzJJeXt9C-1DqezNxr0PlD3Tm5b7yBr_24FOI5r695Z5Qf6SbuWTgU15vw13mIzcZthDb2gIEwKJZ2MVR0nG29yWrDpMIqctHx9gP4sK6fCvT5jyPWE-us_Ugs3Vueu8gRTzeH-m2crdp0kEVfbZ_m9vfnw4v_2aynTXadAxTGHNcDitDMF9VHEvJirbUptxFpOXM04UruxpHx7Mo1lGzV8E7afM9NDfJMxCBY1KEZMGpSATCZfDIPoBXqfnHxUGKwr0byDRl9hJbB1t5ekw-HrR9JYb1HY4bPRxhy8nAKqlAmov5p2AfO3pYNaDiEG_PLph5ftS3eH9wtwawpp8CIfqOiz9HgtoKrli5uJi4xa6a6Ozp-kyXy--KYx64iG1sr8mkoHAsZE293x5eCSQYbF4dqFjLIr2AANxiV?></g></svg>